<svg xmlns="http://www.w3.org/2000/svg">

    <symbol id="pixabay" viewBox="0 0 640 640">
        <path fill="#4DA74D" d="M0 30h640v580H0V30Z"/>
        <path d="M278 152c25 21 42 47 51 78l1 4c9 38-3 75-22 107-15 24-41 44-67 54l-3 1c-28 11-58 8-87 8h-45v113H49V370a13151 13151 0 0 1 0-99c0-39 11-75 36-105l2-3c47-54 137-55 191-11Z"/>
        <path d="M542 120h13l24 1-8 14-2 2-2 3a1269 1269 0 0 0-49 73 1737 1737 0 0 1-29 41l-2 3v6l4 6 1 2 2 3 4 5 2 2 9 12 3 5 51 69a34310 34310 0 0 0 27 38 960 960 0 0 1-37 1c-26 2-26 2-33-3-4-4-7-8-10-14l-6-8-3-5-2-3-13-16-10-13-19-25-8-11-3-4-2-3a388 388 0 0 0-30 39l-16 21-19 26-7 9-2 3-4 5h-8a677 677 0 0 1-24 0h-36l4-8 2-2 1-2a513 513 0 0 0 30-42l8-11 4-5 1-2 18-25 2-2a58105 58105 0 0 1 11-16l2-2a1831 1831 0 0 0 11-15l2-2 3-4 3-5c-1-5-4-9-7-13l-2-2a2494 2494 0 0 0-41-62l-2-3a7432 7432 0 0 1-35-50l-1-2-3-7a892 892 0 0 1 38-2c26-1 26-1 33 4 4 4 7 10 10 15l8 13a8486 8486 0 0 1 39 56l2 3 1 2 2 2h2a125 125 0 0 0 8-11l1-2 10-14 4-6 6-9 20-28 1-2 6-10c7-18 26-14 42-13Z"/>
        <path fill="#4DA74D" d="m240 196 2 2 3 2c15 13 25 33 29 53 2 23-1 45-16 63l-8 9-2 2a87 87 0 0 1-60 23h-3a3740 3740 0 0 1-32 0h-49a8853 8853 0 0 1 0-76c-1-15 1-29 8-43l1-2c10-21 28-37 50-46l3-1c23-8 54-1 74 14Z"/>
        <path fill="#4C9C4C" d="M0 611h640v1H0v-1ZM0 28h640v1H0v-1Z"/>
    </symbol>

    <symbol id="logo" viewBox="0 0 36 36"
        xmlns="http://www.w3.org/2000/svg">

        <!-- Górny moduł -->
        <rect x="6" y="4" width="24" height="8" rx="3" fill="#4da74d"/>

        <!-- Środkowy moduł -->
        <rect x="6" y="14" width="24" height="8" rx="3" fill="#3fa9f5"/>

        <!-- Dolny moduł -->
        <rect x="6" y="24" width="24" height="8" rx="3" fill="#2a2a2a"/>

        <!-- Połączenia -->
        <line x1="18" y1="12" x2="18" y2="14" stroke="#ffffff" stroke-width="2" stroke-linecap="round"/>

        <line x1="18" y1="22" x2="18" y2="24" stroke="#ffffff" stroke-width="2" stroke-linecap="round"/>

    </symbol>

    <symbol id="linkedin" viewBox="0 0 32 32">
        <path d="M31.992 32v-0.001h0.008v-11.736c0-5.741-1.236-10.164-7.948-10.164-3.227 0-5.392 1.771-6.276 3.449h-0.093v-2.913h-6.364v21.364h6.627v-10.579c0-2.785 0.528-5.479 3.977-5.479 3.399 0 3.449 3.179 3.449 5.657v10.401h6.62z"></path>
        <path d="M0.528 10.636h6.635v21.364h-6.635v-21.364z"></path>
        <path d="M3.843 0c-2.121 0-3.843 1.721-3.843 3.843s1.721 3.879 3.843 3.879c2.121 0 3.843-1.757 3.843-3.879-0.001-2.121-1.723-3.843-3.843-3.843v0z"></path>
    </symbol>

    <symbol id="envelope" viewBox="0 0 43 32">
        <path d="M38.667 0h-34.667c-2.206 0-4 1.794-4 4v24c0 2.206 1.794 4 4 4h34.667c2.206 0 4-1.794 4-4v-24c0-2.206-1.794-4-4-4zM38.667 2.667c0.181 0 0.353 0.038 0.511 0.103l-17.844 15.466-17.844-15.466c0.158-0.066 0.33-0.103 0.511-0.103h34.667zM38.667 29.333h-34.667c-0.736 0-1.333-0.598-1.333-1.333v-22.413l17.793 15.421c0.251 0.217 0.563 0.326 0.874 0.326s0.622-0.108 0.874-0.326l17.793-15.421v22.413c0 0.736-0.598 1.333-1.333 1.333z"></path>
    </symbol>

    <symbol id="github" viewBox="0 0 48 48">
        <path d="M24 .6a24 24 0 0 0-7.59 46.77c1.2.22 1.64-.52 1.64-1.16l-.03-4.47c-6.68 1.46-8.09-2.83-8.09-2.83-1.09-2.77-2.66-3.51-2.66-3.51-2.18-1.49.16-1.46.16-1.46 2.41.17 3.68 2.47 3.68 2.47 2.14 3.67 5.62 2.61 6.99 2a5.1 5.1 0 0 1 1.52-3.21C14.3 34.6 8.7 32.53 8.7 23.34a9.3 9.3 0 0 1 2.47-6.44c-.25-.6-1.07-3.05.23-6.36 0 0 2.02-.64 6.6 2.46a22.98 22.98 0 0 1 12.02 0c4.58-3.1 6.6-2.46 6.6-2.46 1.3 3.31.48 5.75.23 6.36a9.27 9.27 0 0 1 2.47 6.44c0 9.22-5.61 11.25-10.96 11.84.86.75 1.63 2.2 1.63 4.44 0 3.22-.03 5.8-.03 6.6 0 .63.43 1.38 1.65 1.14A24 24 0 0 0 24 .6z"/>
    </symbol>

    <symbol id="smartphone" viewBox="0 0 20 32">
        <path d="M17 0h-14c-1.654 0-3 1.346-3 3v26c0 1.654 1.346 3 3 3h14c1.654 0 3-1.346 3-3v-26c0-1.654-1.346-3-3-3zM3 2h14c0.552 0 1 0.448 1 1v21h-16v-21c0-0.552 0.448-1 1-1zM17 30h-14c-0.552 0-1-0.448-1-1v-3h16v3c0 0.552-0.448 1-1 1z"></path>
        <path d="M4.707 27.478c0.391 0.365 0.391 0.956 0 1.321s-1.024 0.365-1.414 0c-0.391-0.365-0.391-0.956 0-1.321s1.024-0.365 1.414 0z"></path>
    </symbol>
</svg>
