<svg xmlns="http://www.w3.org/2000/svg">

    <symbol id="pixabay" viewBox="0 0 640 640">
        <path fill="#4DA74D" d="M0 30h640v580H0V30Z"/>
        <path d="M278 152c25 21 42 47 51 78l1 4c9 38-3 75-22 107-15 24-41 44-67 54l-3 1c-28 11-58 8-87 8h-45v113H49V370a13151 13151 0 0 1 0-99c0-39 11-75 36-105l2-3c47-54 137-55 191-11Z"/>
        <path d="M542 120h13l24 1-8 14-2 2-2 3a1269 1269 0 0 0-49 73 1737 1737 0 0 1-29 41l-2 3v6l4 6 1 2 2 3 4 5 2 2 9 12 3 5 51 69a34310 34310 0 0 0 27 38 960 960 0 0 1-37 1c-26 2-26 2-33-3-4-4-7-8-10-14l-6-8-3-5-2-3-13-16-10-13-19-25-8-11-3-4-2-3a388 388 0 0 0-30 39l-16 21-19 26-7 9-2 3-4 5h-8a677 677 0 0 1-24 0h-36l4-8 2-2 1-2a513 513 0 0 0 30-42l8-11 4-5 1-2 18-25 2-2a58105 58105 0 0 1 11-16l2-2a1831 1831 0 0 0 11-15l2-2 3-4 3-5c-1-5-4-9-7-13l-2-2a2494 2494 0 0 0-41-62l-2-3a7432 7432 0 0 1-35-50l-1-2-3-7a892 892 0 0 1 38-2c26-1 26-1 33 4 4 4 7 10 10 15l8 13a8486 8486 0 0 1 39 56l2 3 1 2 2 2h2a125 125 0 0 0 8-11l1-2 10-14 4-6 6-9 20-28 1-2 6-10c7-18 26-14 42-13Z"/>
        <path fill="#4DA74D" d="m240 196 2 2 3 2c15 13 25 33 29 53 2 23-1 45-16 63l-8 9-2 2a87 87 0 0 1-60 23h-3a3740 3740 0 0 1-32 0h-49a8853 8853 0 0 1 0-76c-1-15 1-29 8-43l1-2c10-21 28-37 50-46l3-1c23-8 54-1 74 14Z"/>
        <path fill="#4C9C4C" d="M0 611h640v1H0v-1ZM0 28h640v1H0v-1Z"/>
    </symbol>

    <symbol id="logo" viewBox="0 0 36 36"
        xmlns="http://www.w3.org/2000/svg">

        <!-- Górny moduł -->
        <rect x="6" y="4" width="24" height="8" rx="3" fill="#4da74d"/>

        <!-- Środkowy moduł -->
        <rect x="6" y="14" width="24" height="8" rx="3" fill="#3fa9f5"/>

        <!-- Dolny moduł -->
        <rect x="6" y="24" width="24" height="8" rx="3" fill="#2a2a2a"/>

        <!-- Połączenia -->
        <line x1="18" y1="12" x2="18" y2="14" stroke="#ffffff" stroke-width="2" stroke-linecap="round"/>

        <line x1="18" y1="22" x2="18" y2="24" stroke="#ffffff" stroke-width="2" stroke-linecap="round"/>

    </symbol>
</svg>
